<svg xmlns="http://www.w3.org/2000/svg" xmlns:xlink="http://www.w3.org/1999/xlink" width="1080" zoomAndPan="magnify" viewBox="0 0 810 809.999993" height="1080" preserveAspectRatio="xMidYMid meet" version="1.0"><path fill="#000000" d="M 636.8125 385.332031 C 635.933594 390.210938 631.273438 393.34375 626.527344 392.484375 C 621.71875 391.609375 618.515625 387.007812 619.382812 382.203125 C 640.472656 265.011719 562.25 152.519531 445.019531 131.445312 C 381.675781 120.054688 317.859375 137.011719 268.613281 178.003906 L 296.191406 182.46875 C 301.023438 183.261719 304.296875 187.804688 303.523438 192.632812 C 302.730469 197.507812 298.113281 200.742188 293.355469 199.953125 L 239.792969 191.273438 C 234.078125 190.34375 230.890625 184.660156 233.121094 178.632812 L 251.285156 128.484375 C 252.953125 123.894531 258.042969 121.503906 262.640625 123.179688 C 267.230469 124.84375 269.625 129.917969 267.941406 134.515625 L 257.042969 164.59375 C 310.34375 120.085938 379.503906 101.671875 448.164062 114.003906 C 575 136.816406 659.625 258.527344 636.8125 385.332031 Z M 212.410156 473.660156 L 183.941406 460.980469 C 179.613281 459.054688 174.539062 461 172.613281 465.328125 C 170.683594 469.652344 172.628906 474.722656 176.957031 476.652344 L 224.300781 497.738281 L 224.304688 497.730469 C 229.898438 500.21875 235.664062 497.75 236.984375 492.128906 L 249.109375 440.847656 C 250.1875 436.234375 247.320312 431.628906 242.703125 430.554688 C 238.09375 429.480469 233.484375 432.347656 232.40625 436.960938 L 226.152344 463.417969 C 174.785156 391.847656 175.039062 299.542969 218.539062 229.808594 C 218.863281 229.285156 219.191406 228.765625 219.523438 228.242188 C 223.152344 222.539062 216.238281 210.28125 204.601562 219.710938 C 204.242188 220.28125 203.882812 220.855469 203.527344 221.429688 C 156.921875 296.8125 156.761719 396.398438 212.410156 473.660156 Z M 530.910156 254.546875 L 429.132812 195.820312 L 402.921875 210.941406 L 504.6875 269.6875 Z M 437.992188 446.105469 L 539.761719 387.359375 L 539.761719 269.886719 L 513.550781 285.019531 L 513.550781 361.449219 C 513.550781 364.609375 511.863281 367.53125 509.121094 369.109375 L 477.480469 387.371094 C 471.664062 390.742188 464.199219 386.578125 464.199219 379.699219 L 464.199219 313.5 L 437.992188 328.628906 Z M 455.347656 298.160156 L 353.582031 239.429688 L 327.371094 254.546875 L 429.132812 313.292969 Z M 477.476562 290.496094 C 480.238281 292.078125 481.910156 294.992188 481.910156 298.160156 L 481.910156 364.359375 L 495.828125 356.335938 L 495.828125 285.015625 L 385.203125 221.160156 L 371.292969 229.203125 Z M 318.507812 269.886719 L 318.507812 387.359375 L 420.277344 446.105469 L 420.277344 328.628906 Z M 424.707031 469.097656 C 427.464844 470.6875 430.804688 470.691406 433.5625 469.097656 L 553.054688 400.148438 C 555.785156 398.5625 557.472656 395.636719 557.472656 392.472656 L 557.472656 254.546875 C 557.472656 251.386719 555.785156 248.472656 553.054688 246.890625 L 433.5625 177.921875 C 430.828125 176.339844 427.441406 176.339844 424.707031 177.921875 L 380.773438 203.269531 C 380.773438 203.28125 380.773438 203.28125 380.773438 203.28125 L 305.222656 246.890625 C 302.484375 248.46875 300.792969 251.382812 300.792969 254.546875 L 300.792969 392.472656 C 300.792969 395.632812 302.484375 398.5625 305.222656 400.148438 Z M 605.863281 476.007812 L 504.085938 580.402344 C 501.039062 584.652344 491.183594 585.707031 485.460938 585.9375 L 359.273438 591.332031 C 351.742188 591.621094 344.039062 595.054688 340.972656 597.140625 L 332.109375 603.019531 L 310.058594 615.132812 L 257.535156 543.71875 C 282.980469 521.820312 309.652344 503.242188 346.882812 503.109375 L 460.246094 502.664062 C 468.789062 502.644531 482.78125 517.707031 472.570312 528.292969 C 469.328125 531.65625 465.304688 533.195312 463.5 533.214844 L 403.910156 533.746094 C 399.019531 533.792969 395.101562 537.792969 395.132812 542.683594 C 395.175781 547.546875 399.144531 551.476562 404.078125 551.453125 L 463.671875 550.921875 C 475.445312 550.800781 488.53125 541.023438 492.511719 528.824219 C 498.183594 527.855469 503.886719 525.390625 509.527344 521.445312 L 600 459.699219 C 602.671875 459.3125 606.285156 459.417969 608.140625 462.242188 C 609.957031 465.019531 609.921875 470.304688 605.863281 476.007812 Z M 299.921875 640.160156 C 302.226562 638.472656 302.738281 635.082031 301.042969 632.78125 L 238.367188 547.558594 L 238.359375 547.558594 L 234.816406 542.730469 C 233.125 540.425781 229.757812 539.90625 227.441406 541.609375 L 178.78125 577.378906 C 176.472656 579.070312 175.957031 582.441406 177.644531 584.757812 L 243.875 674.796875 C 245.589844 677.136719 248.953125 677.628906 251.257812 675.929688 Z M 594.503906 442.75 C 606.460938 439.953125 617.101562 443.613281 622.957031 452.535156 C 629.347656 462.289062 628.097656 475.828125 619.75 487.035156 C 619.507812 487.347656 619.265625 487.644531 618.980469 487.929688 L 518.011719 591.355469 C 514.890625 595.414062 510.65625 598.378906 505.085938 600.394531 C 499.921875 602.269531 492.394531 603.382812 486.164062 603.632812 L 359.933594 609.027344 C 352.171875 609.324219 346.773438 615.136719 340.972656 618.355469 L 319.097656 630.359375 C 321.273438 639.128906 318.128906 648.753906 310.421875 654.429688 L 261.753906 690.1875 C 251.550781 697.691406 237.117188 695.503906 229.605469 685.289062 L 163.386719 595.242188 C 155.875 585.027344 158.066406 570.613281 168.285156 563.105469 L 216.949219 527.351562 C 226.210938 520.535156 238.90625 521.726562 246.789062 529.613281 C 273.789062 506.511719 304.242188 485.554688 346.824219 485.402344 L 460.089844 484.957031 C 474.222656 484.863281 488.132812 496.804688 492.460938 510.617188 C 494.675781 509.839844 497.003906 508.601562 499.46875 506.878906 L 591.527344 444.0625 C 592.417969 443.4375 593.433594 443 594.503906 442.75 Z M 594.503906 442.75 " fill-opacity="1" fill-rule="evenodd"/></svg>