<svg xmlns="http://www.w3.org/2000/svg" xmlns:xlink="http://www.w3.org/1999/xlink" width="1080" zoomAndPan="magnify" viewBox="0 0 810 809.999993" height="1080" preserveAspectRatio="xMidYMid meet" version="1.0"><defs><clipPath id="ff65983f15"><path d="M 119.257812 162.492188 L 691 162.492188 L 691 657.832031 L 119.257812 657.832031 Z M 119.257812 162.492188 " clip-rule="nonzero"/></clipPath></defs><g clip-path="url(#ff65983f15)"><path fill="#000000" d="M 186.082031 353.007812 C 185.457031 353.007812 184.835938 353.070312 184.222656 353.1875 C 183.609375 353.3125 183.011719 353.492188 182.433594 353.730469 C 181.859375 353.96875 181.304688 354.265625 180.789062 354.609375 C 180.265625 354.957031 179.785156 355.355469 179.34375 355.796875 C 178.902344 356.238281 178.507812 356.71875 178.160156 357.238281 C 177.808594 357.761719 177.519531 358.308594 177.277344 358.886719 C 177.039062 359.464844 176.859375 360.0625 176.738281 360.675781 C 176.613281 361.285156 176.554688 361.90625 176.554688 362.53125 L 176.554688 438.738281 C 176.554688 439.363281 176.613281 439.984375 176.738281 440.597656 C 176.859375 441.210938 177.039062 441.808594 177.277344 442.386719 C 177.519531 442.964844 177.808594 443.511719 178.160156 444.03125 C 178.507812 444.554688 178.902344 445.035156 179.34375 445.476562 C 179.785156 445.917969 180.265625 446.3125 180.789062 446.664062 C 181.304688 447.007812 181.859375 447.304688 182.433594 447.542969 C 183.011719 447.78125 183.609375 447.960938 184.222656 448.082031 C 184.835938 448.203125 185.457031 448.265625 186.082031 448.265625 L 281.339844 448.265625 C 281.964844 448.265625 282.585938 448.207031 283.199219 448.082031 C 283.8125 447.960938 284.410156 447.78125 284.988281 447.542969 C 285.5625 447.304688 286.113281 447.007812 286.632812 446.664062 C 287.15625 446.3125 287.636719 445.917969 288.078125 445.476562 C 288.519531 445.035156 288.914062 444.554688 289.261719 444.03125 C 289.609375 443.511719 289.902344 442.964844 290.144531 442.386719 C 290.382812 441.808594 290.5625 441.210938 290.683594 440.597656 C 290.808594 439.984375 290.867188 439.363281 290.867188 438.738281 L 290.867188 362.53125 C 290.867188 361.90625 290.808594 361.285156 290.683594 360.675781 C 290.5625 360.0625 290.382812 359.464844 290.144531 358.886719 C 289.902344 358.308594 289.609375 357.761719 289.261719 357.238281 C 288.914062 356.71875 288.519531 356.238281 288.078125 355.796875 C 287.636719 355.355469 287.15625 354.957031 286.632812 354.609375 C 286.113281 354.265625 285.5625 353.96875 284.988281 353.730469 C 284.410156 353.492188 283.8125 353.3125 283.199219 353.1875 C 282.585938 353.070312 281.964844 353.007812 281.339844 353.007812 Z M 271.816406 429.214844 L 195.605469 429.214844 L 195.605469 372.058594 L 271.816406 372.058594 Z M 395.648438 486.367188 L 167.027344 486.367188 C 166.09375 486.367188 165.160156 486.320312 164.230469 486.226562 C 163.296875 486.132812 162.375 485.996094 161.457031 485.8125 C 160.539062 485.628906 159.632812 485.402344 158.738281 485.132812 C 157.84375 484.859375 156.960938 484.542969 156.097656 484.183594 C 155.234375 483.828125 154.390625 483.425781 153.566406 482.984375 C 152.738281 482.542969 151.9375 482.0625 151.160156 481.542969 C 150.382812 481.019531 149.628906 480.464844 148.90625 479.871094 C 148.1875 479.277344 147.492188 478.648438 146.832031 477.988281 C 146.171875 477.324219 145.542969 476.632812 144.949219 475.910156 C 144.355469 475.1875 143.796875 474.4375 143.277344 473.660156 C 142.757812 472.882812 142.277344 472.078125 141.835938 471.253906 C 141.394531 470.429688 140.996094 469.585938 140.636719 468.722656 C 140.277344 467.859375 139.960938 466.980469 139.691406 466.082031 C 139.417969 465.1875 139.1875 464.28125 139.003906 463.363281 C 138.824219 462.445312 138.683594 461.519531 138.589844 460.589844 C 138.5 459.65625 138.453125 458.726562 138.453125 457.792969 L 138.453125 314.90625 L 595.695312 314.90625 L 595.695312 343.484375 C 595.695312 344.109375 595.753906 344.726562 595.878906 345.339844 C 596 345.953125 596.179688 346.546875 596.417969 347.125 C 596.65625 347.703125 596.953125 348.253906 597.296875 348.773438 C 597.648438 349.292969 598.042969 349.777344 598.484375 350.21875 C 598.925781 350.660156 599.40625 351.054688 599.929688 351.402344 C 600.449219 351.75 600.996094 352.042969 601.574219 352.28125 C 602.152344 352.519531 602.746094 352.703125 603.363281 352.824219 C 603.976562 352.945312 604.59375 353.007812 605.222656 353.007812 C 605.84375 353.007812 606.464844 352.945312 607.082031 352.824219 C 607.691406 352.703125 608.289062 352.519531 608.867188 352.28125 C 609.445312 352.042969 609.992188 351.75 610.511719 351.402344 C 611.03125 351.054688 611.511719 350.660156 611.953125 350.21875 C 612.398438 349.777344 612.792969 349.292969 613.140625 348.773438 C 613.488281 348.253906 613.78125 347.703125 614.019531 347.125 C 614.257812 346.546875 614.441406 345.953125 614.5625 345.339844 C 614.683594 344.726562 614.746094 344.109375 614.746094 343.484375 L 614.746094 210.125 C 614.742188 208.5625 614.667969 207.003906 614.511719 205.453125 C 614.359375 203.902344 614.125 202.363281 613.820312 200.832031 C 613.515625 199.304688 613.136719 197.792969 612.679688 196.300781 C 612.230469 194.808594 611.703125 193.34375 611.105469 191.90625 C 610.507812 190.464844 609.84375 189.054688 609.105469 187.679688 C 608.367188 186.304688 607.566406 184.972656 606.703125 183.671875 C 605.835938 182.378906 604.910156 181.125 603.917969 179.921875 C 602.929688 178.714844 601.878906 177.5625 600.777344 176.457031 C 599.675781 175.355469 598.523438 174.308594 597.320312 173.320312 C 596.113281 172.332031 594.863281 171.40625 593.566406 170.539062 C 592.269531 169.671875 590.933594 168.867188 589.558594 168.132812 C 588.183594 167.398438 586.777344 166.730469 585.335938 166.132812 C 583.894531 165.535156 582.429688 165.011719 580.9375 164.554688 C 579.445312 164.105469 577.933594 163.722656 576.402344 163.417969 C 574.875 163.109375 573.335938 162.882812 571.78125 162.730469 C 570.230469 162.574219 568.675781 162.496094 567.117188 162.492188 L 167.027344 162.492188 C 165.46875 162.496094 163.914062 162.574219 162.363281 162.730469 C 160.808594 162.882812 159.269531 163.109375 157.742188 163.417969 C 156.210938 163.722656 154.699219 164.105469 153.210938 164.554688 C 151.71875 165.011719 150.25 165.535156 148.8125 166.132812 C 147.371094 166.730469 145.960938 167.398438 144.585938 168.132812 C 143.210938 168.867188 141.878906 169.671875 140.578125 170.539062 C 139.285156 171.40625 138.03125 172.332031 136.828125 173.320312 C 135.621094 174.308594 134.46875 175.355469 133.367188 176.457031 C 132.265625 177.5625 131.21875 178.714844 130.230469 179.921875 C 129.242188 181.125 128.3125 182.378906 127.445312 183.671875 C 126.578125 184.972656 125.777344 186.304688 125.039062 187.679688 C 124.304688 189.054688 123.640625 190.464844 123.042969 191.90625 C 122.445312 193.34375 121.917969 194.808594 121.464844 196.300781 C 121.007812 197.792969 120.632812 199.304688 120.324219 200.832031 C 120.019531 202.363281 119.789062 203.902344 119.636719 205.453125 C 119.480469 207.003906 119.402344 208.5625 119.398438 210.125 L 119.398438 457.792969 C 119.402344 459.347656 119.480469 460.90625 119.636719 462.457031 C 119.789062 464.007812 120.019531 465.546875 120.324219 467.078125 C 120.632812 468.605469 121.007812 470.117188 121.464844 471.609375 C 121.917969 473.101562 122.445312 474.570312 123.042969 476.007812 C 123.640625 477.449219 124.304688 478.855469 125.039062 480.230469 C 125.777344 481.605469 126.578125 482.941406 127.445312 484.238281 C 128.3125 485.53125 129.242188 486.785156 130.230469 487.988281 C 131.21875 489.195312 132.265625 490.351562 133.367188 491.453125 C 134.46875 492.554688 135.621094 493.601562 136.828125 494.589844 C 138.03125 495.582031 139.285156 496.511719 140.578125 497.375 C 141.878906 498.242188 143.210938 499.042969 144.585938 499.777344 C 145.960938 500.515625 147.371094 501.183594 148.8125 501.78125 C 150.25 502.378906 151.71875 502.902344 153.210938 503.355469 C 154.699219 503.808594 156.210938 504.191406 157.742188 504.496094 C 159.269531 504.800781 160.808594 505.03125 162.363281 505.1875 C 163.914062 505.339844 165.46875 505.417969 167.027344 505.417969 L 395.648438 505.417969 C 396.277344 505.417969 396.894531 505.359375 397.507812 505.234375 C 398.121094 505.113281 398.71875 504.933594 399.296875 504.695312 C 399.871094 504.457031 400.425781 504.160156 400.941406 503.816406 C 401.464844 503.464844 401.945312 503.070312 402.386719 502.628906 C 402.828125 502.1875 403.222656 501.707031 403.570312 501.183594 C 403.921875 500.667969 404.210938 500.117188 404.453125 499.539062 C 404.691406 498.960938 404.875 498.367188 404.992188 497.75 C 405.117188 497.136719 405.175781 496.519531 405.175781 495.890625 C 405.175781 495.269531 405.117188 494.648438 404.992188 494.035156 C 404.875 493.421875 404.691406 492.824219 404.453125 492.246094 C 404.210938 491.667969 403.921875 491.121094 403.570312 490.601562 C 403.222656 490.082031 402.828125 489.601562 402.386719 489.160156 C 401.945312 488.714844 401.464844 488.320312 400.941406 487.972656 C 400.425781 487.625 399.871094 487.332031 399.296875 487.09375 C 398.71875 486.855469 398.121094 486.671875 397.507812 486.550781 C 396.894531 486.429688 396.277344 486.367188 395.648438 486.367188 Z M 138.453125 295.855469 L 138.453125 238.699219 L 595.695312 238.699219 L 595.695312 295.855469 Z M 167.027344 181.546875 L 567.117188 181.546875 C 568.054688 181.546875 568.984375 181.589844 569.914062 181.683594 C 570.847656 181.777344 571.773438 181.917969 572.6875 182.101562 C 573.609375 182.28125 574.515625 182.511719 575.40625 182.785156 C 576.304688 183.054688 577.183594 183.371094 578.046875 183.730469 C 578.910156 184.085938 579.757812 184.488281 580.582031 184.929688 C 581.40625 185.371094 582.207031 185.851562 582.984375 186.371094 C 583.765625 186.890625 584.515625 187.449219 585.238281 188.039062 C 585.960938 188.632812 586.652344 189.261719 587.3125 189.921875 C 587.976562 190.585938 588.601562 191.277344 589.195312 192 C 589.792969 192.726562 590.347656 193.476562 590.867188 194.253906 C 591.386719 195.027344 591.871094 195.832031 592.3125 196.65625 C 592.753906 197.484375 593.152344 198.324219 593.511719 199.1875 C 593.867188 200.054688 594.183594 200.9375 594.457031 201.828125 C 594.730469 202.726562 594.957031 203.632812 595.140625 204.546875 C 595.324219 205.46875 595.460938 206.390625 595.554688 207.320312 C 595.644531 208.253906 595.695312 209.1875 595.695312 210.125 L 595.695312 219.648438 L 138.453125 219.648438 L 138.453125 210.125 C 138.453125 209.1875 138.5 208.253906 138.589844 207.320312 C 138.683594 206.390625 138.824219 205.46875 139.003906 204.546875 C 139.1875 203.632812 139.417969 202.726562 139.691406 201.828125 C 139.960938 200.9375 140.277344 200.054688 140.636719 199.1875 C 140.996094 198.324219 141.394531 197.484375 141.835938 196.65625 C 142.277344 195.832031 142.757812 195.027344 143.277344 194.253906 C 143.796875 193.476562 144.355469 192.726562 144.949219 192 C 145.542969 191.277344 146.171875 190.585938 146.832031 189.921875 C 147.492188 189.261719 148.1875 188.632812 148.90625 188.039062 C 149.628906 187.449219 150.382812 186.890625 151.160156 186.371094 C 151.9375 185.851562 152.738281 185.371094 153.566406 184.929688 C 154.390625 184.488281 155.234375 184.085938 156.097656 183.730469 C 156.960938 183.371094 157.84375 183.054688 158.738281 182.785156 C 159.632812 182.511719 160.539062 182.28125 161.457031 182.101562 C 162.375 181.917969 163.296875 181.777344 164.230469 181.683594 C 165.160156 181.589844 166.09375 181.546875 167.027344 181.546875 Z M 681.429688 391.109375 C 670.964844 390.941406 660.570312 390.039062 650.234375 388.402344 C 639.902344 386.765625 629.734375 384.417969 619.734375 381.34375 C 609.730469 378.277344 599.996094 374.523438 590.523438 370.078125 C 581.050781 365.636719 571.9375 360.550781 563.183594 354.824219 C 562.777344 354.53125 562.351562 354.273438 561.90625 354.046875 C 561.460938 353.824219 561 353.636719 560.527344 353.484375 C 560.054688 353.332031 559.570312 353.214844 559.078125 353.140625 C 558.582031 353.058594 558.089844 353.023438 557.589844 353.023438 C 557.09375 353.023438 556.597656 353.058594 556.101562 353.140625 C 555.613281 353.214844 555.128906 353.332031 554.652344 353.484375 C 554.179688 353.636719 553.71875 353.824219 553.273438 354.046875 C 552.828125 354.273438 552.40625 354.53125 552 354.824219 C 543.242188 360.550781 534.132812 365.636719 524.660156 370.078125 C 515.1875 374.523438 505.453125 378.277344 495.449219 381.34375 C 485.445312 384.417969 475.28125 386.765625 464.949219 388.402344 C 454.613281 390.039062 444.214844 390.941406 433.753906 391.109375 C 433.128906 391.109375 432.507812 391.167969 431.898438 391.292969 C 431.28125 391.414062 430.683594 391.59375 430.109375 391.832031 C 429.53125 392.074219 428.980469 392.367188 428.460938 392.714844 C 427.9375 393.0625 427.457031 393.457031 427.015625 393.898438 C 426.574219 394.339844 426.179688 394.820312 425.832031 395.34375 C 425.484375 395.863281 425.191406 396.414062 424.949219 396.992188 C 424.710938 397.566406 424.53125 398.164062 424.410156 398.777344 C 424.289062 399.390625 424.226562 400.011719 424.226562 400.636719 L 424.226562 495.890625 C 424.226562 613.726562 553.347656 656.949219 554.652344 657.367188 C 556.613281 658 558.570312 658 560.53125 657.367188 C 561.835938 656.949219 690.953125 613.726562 690.953125 495.890625 L 690.953125 400.636719 C 690.953125 400.011719 690.890625 399.390625 690.773438 398.777344 C 690.648438 398.164062 690.46875 397.566406 690.230469 396.992188 C 689.992188 396.414062 689.695312 395.863281 689.351562 395.34375 C 689.003906 394.820312 688.605469 394.339844 688.164062 393.898438 C 687.722656 393.457031 687.242188 393.0625 686.722656 392.714844 C 686.199219 392.363281 685.652344 392.074219 685.074219 391.832031 C 684.496094 391.59375 683.898438 391.414062 683.285156 391.292969 C 682.671875 391.167969 682.054688 391.109375 681.429688 391.109375 Z M 671.902344 495.890625 C 671.902344 590.40625 575.785156 631.292969 557.589844 638.183594 C 539.394531 631.292969 443.277344 590.40625 443.277344 495.890625 L 443.277344 409.949219 C 453.371094 409.402344 463.386719 408.230469 473.332031 406.425781 C 483.273438 404.625 493.0625 402.207031 502.703125 399.171875 C 512.339844 396.140625 521.753906 392.519531 530.9375 388.300781 C 540.121094 384.085938 549.003906 379.316406 557.589844 373.984375 C 566.175781 379.316406 575.058594 384.085938 584.242188 388.300781 C 593.425781 392.519531 602.839844 396.140625 612.480469 399.171875 C 622.117188 402.207031 631.910156 404.625 641.851562 406.425781 C 651.792969 408.230469 661.8125 409.402344 671.902344 409.949219 Z M 538.539062 539.578125 L 617.535156 460.582031 C 617.980469 460.144531 618.460938 459.753906 618.980469 459.410156 C 619.5 459.066406 620.050781 458.777344 620.628906 458.542969 C 621.203125 458.304688 621.796875 458.128906 622.40625 458.011719 C 623.019531 457.890625 623.636719 457.832031 624.257812 457.835938 C 624.882812 457.835938 625.496094 457.898438 626.109375 458.019531 C 626.71875 458.144531 627.3125 458.328125 627.886719 458.566406 C 628.464844 458.804688 629.011719 459.097656 629.527344 459.445312 C 630.042969 459.789062 630.523438 460.183594 630.964844 460.625 C 631.40625 461.066406 631.796875 461.542969 632.144531 462.0625 C 632.492188 462.578125 632.78125 463.125 633.023438 463.699219 C 633.261719 464.277344 633.445312 464.867188 633.566406 465.476562 C 633.6875 466.089844 633.753906 466.707031 633.753906 467.328125 C 633.753906 467.953125 633.695312 468.570312 633.578125 469.179688 C 633.460938 469.792969 633.28125 470.386719 633.046875 470.964844 C 632.808594 471.539062 632.519531 472.085938 632.179688 472.605469 C 631.835938 473.125 631.445312 473.605469 631.007812 474.050781 L 545.273438 559.78125 C 544.832031 560.222656 544.347656 560.617188 543.832031 560.96875 C 543.308594 561.316406 542.761719 561.609375 542.183594 561.847656 C 541.605469 562.085938 541.007812 562.269531 540.398438 562.390625 C 539.785156 562.511719 539.164062 562.574219 538.539062 562.574219 C 537.914062 562.574219 537.292969 562.511719 536.679688 562.390625 C 536.070312 562.269531 535.472656 562.085938 534.894531 561.847656 C 534.316406 561.609375 533.769531 561.316406 533.246094 560.96875 C 532.726562 560.617188 532.246094 560.222656 531.800781 559.78125 L 484.175781 512.15625 C 483.738281 511.710938 483.34375 511.230469 483.003906 510.710938 C 482.65625 510.191406 482.371094 509.640625 482.132812 509.0625 C 481.898438 508.488281 481.722656 507.894531 481.601562 507.28125 C 481.484375 506.671875 481.421875 506.050781 481.425781 505.433594 C 481.429688 504.808594 481.488281 504.191406 481.613281 503.582031 C 481.734375 502.972656 481.917969 502.378906 482.15625 501.800781 C 482.394531 501.226562 482.6875 500.679688 483.035156 500.164062 C 483.382812 499.644531 483.777344 499.167969 484.214844 498.726562 C 484.65625 498.285156 485.136719 497.890625 485.652344 497.546875 C 486.171875 497.199219 486.71875 496.90625 487.292969 496.667969 C 487.867188 496.425781 488.460938 496.246094 489.074219 496.125 C 489.679688 496.003906 490.296875 495.9375 490.921875 495.9375 C 491.542969 495.9375 492.160156 495.992188 492.773438 496.113281 C 493.386719 496.230469 493.980469 496.410156 494.554688 496.644531 C 495.132812 496.878906 495.679688 497.171875 496.199219 497.511719 C 496.71875 497.855469 497.199219 498.246094 497.644531 498.683594 Z M 538.539062 539.578125 " fill-opacity="1" fill-rule="nonzero"/></g></svg>