<svg xmlns="http://www.w3.org/2000/svg" xmlns:xlink="http://www.w3.org/1999/xlink" width="1080" zoomAndPan="magnify" viewBox="0 0 810 809.999993" height="1080" preserveAspectRatio="xMidYMid meet" version="1.0"><defs><clipPath id="3ec4e9087d"><path d="M 143 194.183594 L 555.382812 194.183594 L 555.382812 585.394531 L 143 585.394531 Z M 143 194.183594 " clip-rule="nonzero"/></clipPath><clipPath id="3e39ced44a"><path d="M 104.859375 194.183594 L 129 194.183594 L 129 219 L 104.859375 219 Z M 104.859375 194.183594 " clip-rule="nonzero"/></clipPath><clipPath id="7c0d951ee9"><path d="M 58 194.183594 L 82.4375 194.183594 L 82.4375 219 L 58 219 Z M 58 194.183594 " clip-rule="nonzero"/></clipPath><clipPath id="aea6bccffd"><path d="M 6.472656 322.765625 L 31 322.765625 L 31 347 L 6.472656 347 Z M 6.472656 322.765625 " clip-rule="nonzero"/></clipPath></defs><g clip-path="url(#3ec4e9087d)"><path fill="#000000" d="M 332.59375 194.269531 C 391.277344 194.269531 449.960938 194.269531 508.644531 194.269531 C 520.65625 194.269531 531.570312 196.96875 541.636719 204 C 551.039062 210.574219 555.257812 218.738281 555.164062 230.328125 C 554.832031 276.007812 555.046875 321.699219 555.054688 367.382812 C 555.054688 416.988281 555.054688 466.59375 555.054688 516.199219 C 555.054688 519.242188 554.992188 522.289062 555.054688 525.335938 C 555.117188 528.386719 553.800781 530.210938 550.566406 530.210938 C 547.519531 530.210938 544.476562 530.253906 541.433594 530.253906 L 413.652344 530.253906 C 398.503906 530.253906 401.378906 529.671875 397.28125 541.476562 C 389.746094 563.203125 374.917969 577.050781 352.839844 583.332031 C 329.324219 590.027344 299.449219 579.21875 286.59375 558.546875 C 282.296875 551.539062 278.914062 544.121094 276.445312 536.28125 C 274.917969 531.488281 272.847656 530.097656 268.363281 530.167969 C 257.503906 530.347656 246.613281 529.902344 235.761719 530.292969 C 217.242188 530.96875 199.835938 514.714844 200.195312 495.222656 C 200.992188 451.289062 200.445312 407.335938 200.453125 363.386719 C 200.453125 361.648438 200.453125 359.902344 200.453125 358.167969 C 200.453125 354.941406 201.953125 353.375 205.207031 353.5625 C 205.636719 353.5625 206.105469 353.5625 206.507812 353.5625 C 224.75 353.5625 221.417969 352.332031 221.480469 367.570312 C 221.652344 406.734375 221.546875 445.894531 221.554688 485.054688 C 221.554688 488.101562 221.339844 491.167969 221.617188 494.191406 C 222.515625 503.738281 226.109375 507.289062 235.613281 507.460938 C 246.472656 507.667969 257.347656 507.28125 268.207031 507.578125 C 273.597656 507.730469 274.988281 505.445312 276.605469 500.429688 C 286.066406 471.023438 306.445312 454.023438 336.210938 452.769531 C 363.03125 451.640625 388.4375 468.707031 398.191406 497.503906 C 401.507812 507.308594 401.304688 507.480469 411.222656 507.488281 C 448.601562 507.542969 485.980469 507.542969 523.359375 507.488281 C 525.53125 507.488281 527.921875 508 529.816406 507.265625 C 530.738281 506.878906 531.546875 506.320312 532.238281 505.59375 C 532.929688 504.871094 533.441406 504.035156 533.78125 503.089844 C 534.441406 500.195312 534.046875 497.039062 534.046875 494.003906 C 534.046875 409.152344 534.046875 324.304688 534.046875 239.457031 C 534.046875 222.8125 528.347656 217.113281 511.125 217.074219 C 463.753906 216.980469 416.378906 216.980469 369 217.074219 L 238.601562 217.074219 C 235.558594 217.074219 232.5 216.949219 229.472656 217.144531 C 223.277344 217.5625 221.875 218.714844 221.671875 224.980469 C 221.363281 234.105469 221.445312 243.25 221.589844 252.386719 C 221.652344 256.714844 220.132812 258.679688 215.578125 258.628906 C 196.886719 258.472656 200.847656 259.941406 200.460938 244.726562 C 200.28125 237.765625 200.203125 230.785156 200.460938 223.839844 C 200.671875 218.691406 198.488281 216.957031 193.554688 217.019531 C 179.652344 217.191406 165.710938 217.15625 151.832031 217.066406 C 143.316406 217.011719 143.316406 216.894531 143.121094 208.488281 C 143.121094 206.746094 143.066406 204.996094 143.121094 203.261719 C 143.335938 194.378906 143.34375 194.269531 152.773438 194.269531 C 212.757812 194.269531 272.746094 194.269531 332.726562 194.269531 Z M 296.496094 519.265625 C 296.496094 521.003906 296.367188 522.746094 296.496094 524.472656 C 298.503906 548.285156 324.707031 573.199219 355.875 558.453125 C 372.941406 550.363281 385.199219 527.199219 375.570312 501.609375 C 365.816406 475.710938 334.570312 467.636719 314.492188 482.527344 C 302.304688 491.671875 295.855469 503.738281 296.496094 519.265625 Z M 296.496094 519.265625 " fill-opacity="1" fill-rule="nonzero"/></g><path fill="#000000" d="M 645.332031 253.90625 C 657.492188 253.90625 669.679688 254.328125 681.816406 253.796875 C 697.238281 253.113281 709.8125 259.195312 720.3125 269.546875 C 727.3125 276.652344 733.726562 284.257812 739.546875 292.363281 C 752.117188 309.449219 764.632812 326.667969 776.5 344.285156 C 786.585938 359.265625 792.667969 375.800781 792.363281 394.300781 C 792.117188 409.511719 792.300781 424.734375 792.261719 439.960938 C 792.261719 443.554688 792.199219 447.042969 797.21875 447.378906 C 801.042969 447.621094 802.195312 450.210938 802.195312 453.671875 C 802.195312 468.453125 803.097656 483.34375 801.9375 498.011719 C 800.460938 517.007812 785.132812 529.957031 765.855469 530.222656 C 758.914062 530.316406 751.949219 530.382812 745.003906 530.222656 C 740.363281 530.082031 738.394531 531.667969 737.21875 536.578125 C 732.953125 554.230469 722.917969 568.050781 707.007812 577.039062 C 671.539062 596.957031 628.992188 579.53125 615.480469 540.355469 C 612.085938 530.507812 612.355469 530.371094 602.554688 530.300781 C 593.871094 530.230469 585.175781 530.105469 576.507812 530.300781 C 571.878906 530.417969 570.28125 528.371094 570.59375 524.0625 C 570.722656 522.335938 570.59375 520.585938 570.59375 518.84375 C 570.59375 442.316406 570.820312 365.773438 570.425781 289.246094 C 570.351562 274.363281 576.378906 264.234375 588.957031 257.683594 C 593.15625 255.503906 597.621094 254.300781 602.347656 254.085938 C 616.648438 253.617188 630.992188 253.90625 645.332031 253.90625 Z M 714.097656 297.175781 C 704.8125 282.214844 697.507812 276.816406 685.492188 276.726562 C 658.992188 276.511719 632.496094 276.539062 605.996094 276.671875 C 596.1875 276.726562 592.703125 280.125 591.765625 289.667969 C 591.515625 292.257812 591.679688 294.882812 591.679688 297.488281 C 591.679688 363.164062 591.679688 428.824219 591.679688 494.484375 C 591.679688 497.101562 591.765625 499.710938 591.679688 502.316406 C 591.613281 505.484375 593.113281 507.183594 596.242188 507.363281 C 598.40625 507.480469 600.585938 507.480469 602.753906 507.480469 C 612.246094 507.480469 612.238281 507.480469 615.328125 498.488281 C 618.921875 488.164062 623.410156 478.378906 631.757812 470.867188 C 649.441406 455.039062 669.332031 448.351562 692.855469 455.039062 C 716.832031 461.871094 730.625 478.417969 737.265625 501.589844 C 738.457031 505.753906 740.039062 507.480469 744.152344 507.433594 C 751.96875 507.355469 759.800781 507.660156 767.609375 507.34375 C 774.871094 507.054688 778.957031 503.261719 779.386719 496.222656 C 779.820312 489.179688 779.582031 482.300781 779.386719 475.351562 C 779.386719 473.777344 778.445312 470.929688 777.71875 470.855469 C 768.628906 469.957031 771.429688 463.066406 771.253906 458.011719 C 770.957031 450.203125 771.179688 442.363281 771.171875 434.539062 C 771.171875 428.007812 771.171875 421.488281 771.117188 414.960938 C 771.054688 410.222656 768.675781 407.769531 763.796875 407.957031 C 760.75 408.058594 757.714844 407.957031 754.671875 407.957031 C 725.136719 407.957031 695.59375 408.074219 666.054688 407.902344 C 648.984375 407.800781 634.183594 394.035156 633.589844 377.167969 C 633.015625 361.089844 633.058594 344.976562 633.589844 328.902344 C 634.121094 312.507812 648.539062 298.59375 664.777344 298.246094 C 677.800781 297.964844 690.824219 298.246094 703.867188 298.15625 C 707.117188 298.144531 710.371094 297.5625 714.097656 297.175781 Z M 715.894531 386.796875 C 731.085938 386.796875 746.273438 386.898438 761.460938 386.753906 C 769.203125 386.671875 770.441406 384.640625 767.75 377.140625 C 767.03125 375.097656 766.015625 373.175781 765.179688 371.171875 C 757.996094 353.710938 744.878906 340.03125 734.9375 324.320312 C 732.332031 320.191406 728.082031 319.375 723.582031 319.398438 C 705.015625 319.484375 686.441406 319.398438 667.890625 319.773438 C 660.023438 319.941406 656.351562 324.007812 656.214844 332.261719 C 655.9375 345.730469 655.9375 359.203125 656.214844 372.671875 C 656.414062 383.300781 659.863281 386.664062 670.363281 386.78125 C 685.523438 386.925781 700.695312 386.796875 715.914062 386.796875 Z M 717.042969 518.566406 C 717.042969 517.265625 717.042969 515.96875 717.042969 514.664062 C 716.597656 498.203125 707.210938 486.507812 694.015625 479.320312 C 680.820312 472.125 666.707031 473.613281 653.402344 482.011719 C 631.917969 495.558594 631.203125 527.75 641.476562 543.320312 C 648.023438 553.210938 656.316406 560.40625 668.207031 561.96875 C 696.054688 565.730469 717.257812 546.757812 717.0625 518.566406 Z M 717.042969 518.566406 " fill-opacity="1" fill-rule="nonzero"/><path fill="#000000" d="M 256.65625 290.359375 L 156.457031 290.359375 C 153.421875 290.359375 150.296875 290.738281 147.386719 290.125 C 145.78125 289.792969 144.25 287.949219 143.230469 286.421875 C 142.617188 285.519531 143.019531 283.886719 143.019531 282.589844 C 143.082031 267.449219 141.988281 269.195312 156.097656 269.195312 C 223.324219 269.195312 290.550781 269.195312 357.789062 269.195312 C 360.390625 269.195312 363 269.3125 365.59375 269.195312 C 369.796875 268.984375 371.988281 270.441406 371.933594 275.089844 C 371.726562 293.074219 373.59375 290.257812 358.15625 290.332031 C 324.339844 290.484375 290.484375 290.351562 256.65625 290.359375 Z M 256.65625 290.359375 " fill-opacity="1" fill-rule="nonzero"/><path fill="#000000" d="M 183.476562 345.335938 C 157.828125 345.335938 132.179688 345.335938 106.535156 345.335938 C 96.476562 345.335938 96.476562 345.21875 96.414062 335.445312 C 96.414062 333.269531 96.484375 331.09375 96.457031 328.917969 C 96.414062 325.699219 97.984375 324.171875 101.164062 324.1875 C 103.335938 324.1875 105.511719 324.1875 107.683594 324.1875 C 158.113281 324.1875 208.539062 324.1875 258.964844 324.1875 C 261.570312 324.1875 264.253906 323.945312 266.753906 324.46875 C 268.054688 324.746094 270.03125 326.453125 270.03125 327.523438 C 270.03125 333.0625 269.515625 338.601562 269.132812 344.152344 C 264.910156 344.542969 260.6875 345.257812 256.46875 345.28125 C 232.171875 345.382812 207.832031 345.335938 183.476562 345.335938 Z M 183.476562 345.335938 " fill-opacity="1" fill-rule="nonzero"/><path fill="#000000" d="M 354.375 519.375 C 354.230469 529.789062 347.84375 535.96875 337.308594 535.921875 C 326.351562 535.921875 319.925781 529.070312 320.332031 517.933594 C 320.683594 508.046875 328.0625 501.410156 338.117188 501.867188 C 348.3125 502.300781 354.519531 508.988281 354.375 519.375 Z M 354.375 519.375 " fill-opacity="1" fill-rule="nonzero"/><path fill="#000000" d="M 675.542969 535.96875 C 665.136719 535.804688 659.144531 529.410156 659.226562 518.539062 C 659.304688 508.164062 665.84375 502.183594 676.226562 501.671875 C 686.019531 501.183594 694.300781 509.960938 693.394531 519.878906 C 692.40625 530.019531 686.253906 536.09375 675.542969 535.96875 Z M 675.542969 535.96875 " fill-opacity="1" fill-rule="nonzero"/><g clip-path="url(#3e39ced44a)"><path fill="#000000" d="M 128.773438 206.1875 C 128.773438 206.972656 128.699219 207.75 128.546875 208.519531 C 128.390625 209.292969 128.164062 210.039062 127.867188 210.765625 C 127.566406 211.492188 127.199219 212.183594 126.761719 212.832031 C 126.320312 213.488281 125.832031 214.09375 125.277344 214.648438 C 124.714844 215.207031 124.117188 215.703125 123.460938 216.136719 C 122.8125 216.574219 122.117188 216.941406 121.394531 217.246094 C 120.671875 217.546875 119.921875 217.769531 119.152344 217.925781 C 118.382812 218.078125 117.605469 218.15625 116.816406 218.15625 C 116.035156 218.15625 115.257812 218.078125 114.488281 217.925781 C 113.714844 217.769531 112.96875 217.546875 112.242188 217.246094 C 111.519531 216.941406 110.828125 216.574219 110.179688 216.136719 C 109.523438 215.703125 108.917969 215.207031 108.363281 214.648438 C 107.808594 214.09375 107.3125 213.488281 106.878906 212.832031 C 106.441406 212.183594 106.074219 211.492188 105.773438 210.765625 C 105.476562 210.039062 105.246094 209.292969 105.09375 208.519531 C 104.941406 207.75 104.867188 206.972656 104.867188 206.1875 C 104.867188 205.402344 104.941406 204.621094 105.09375 203.851562 C 105.246094 203.078125 105.476562 202.332031 105.773438 201.605469 C 106.074219 200.882812 106.441406 200.1875 106.878906 199.539062 C 107.3125 198.882812 107.808594 198.277344 108.363281 197.722656 C 108.917969 197.164062 109.523438 196.671875 110.179688 196.234375 C 110.828125 195.796875 111.519531 195.429688 112.242188 195.128906 C 112.96875 194.832031 113.714844 194.601562 114.488281 194.445312 C 115.257812 194.296875 116.035156 194.21875 116.816406 194.21875 C 117.605469 194.21875 118.382812 194.296875 119.152344 194.445312 C 119.921875 194.601562 120.671875 194.832031 121.394531 195.128906 C 122.117188 195.429688 122.8125 195.796875 123.460938 196.234375 C 124.117188 196.671875 124.714844 197.164062 125.277344 197.722656 C 125.832031 198.277344 126.320312 198.882812 126.761719 199.539062 C 127.199219 200.1875 127.566406 200.882812 127.867188 201.605469 C 128.164062 202.332031 128.390625 203.078125 128.546875 203.851562 C 128.699219 204.621094 128.773438 205.402344 128.773438 206.1875 Z M 128.773438 206.1875 " fill-opacity="1" fill-rule="nonzero"/></g><g clip-path="url(#7c0d951ee9)"><path fill="#000000" d="M 82.433594 206.1875 C 82.433594 206.972656 82.359375 207.75 82.203125 208.519531 C 82.054688 209.292969 81.824219 210.039062 81.523438 210.765625 C 81.226562 211.492188 80.859375 212.183594 80.421875 212.832031 C 79.984375 213.488281 79.488281 214.09375 78.933594 214.648438 C 78.378906 215.207031 77.777344 215.703125 77.121094 216.136719 C 76.46875 216.574219 75.78125 216.941406 75.058594 217.246094 C 74.332031 217.546875 73.582031 217.769531 72.8125 217.925781 C 72.042969 218.078125 71.265625 218.15625 70.480469 218.15625 C 69.695312 218.15625 68.917969 218.078125 68.148438 217.925781 C 67.378906 217.769531 66.628906 217.546875 65.902344 217.246094 C 65.183594 216.941406 64.488281 216.574219 63.839844 216.136719 C 63.183594 215.703125 62.578125 215.207031 62.023438 214.648438 C 61.46875 214.09375 60.972656 213.488281 60.539062 212.832031 C 60.101562 212.183594 59.734375 211.492188 59.433594 210.765625 C 59.136719 210.039062 58.910156 209.292969 58.753906 208.519531 C 58.601562 207.75 58.527344 206.972656 58.527344 206.1875 C 58.527344 205.402344 58.601562 204.621094 58.753906 203.851562 C 58.910156 203.078125 59.136719 202.332031 59.433594 201.605469 C 59.734375 200.882812 60.101562 200.1875 60.539062 199.539062 C 60.972656 198.882812 61.46875 198.277344 62.023438 197.722656 C 62.578125 197.164062 63.183594 196.671875 63.839844 196.234375 C 64.488281 195.796875 65.183594 195.429688 65.902344 195.128906 C 66.628906 194.832031 67.378906 194.601562 68.148438 194.445312 C 68.917969 194.296875 69.695312 194.21875 70.480469 194.21875 C 71.265625 194.21875 72.042969 194.296875 72.8125 194.445312 C 73.582031 194.601562 74.332031 194.832031 75.058594 195.128906 C 75.78125 195.429688 76.46875 195.796875 77.121094 196.234375 C 77.777344 196.671875 78.378906 197.164062 78.933594 197.722656 C 79.488281 198.277344 79.984375 198.882812 80.421875 199.539062 C 80.859375 200.1875 81.226562 200.882812 81.523438 201.605469 C 81.824219 202.332031 82.054688 203.078125 82.203125 203.851562 C 82.359375 204.621094 82.433594 205.402344 82.433594 206.1875 Z M 82.433594 206.1875 " fill-opacity="1" fill-rule="nonzero"/></g><path fill="#000000" d="M 116.816406 279.804688 C 116.816406 280.589844 116.742188 281.367188 116.589844 282.140625 C 116.4375 282.910156 116.210938 283.65625 115.910156 284.382812 C 115.609375 285.109375 115.242188 285.800781 114.804688 286.453125 C 114.371094 287.105469 113.875 287.710938 113.320312 288.265625 C 112.765625 288.820312 112.160156 289.316406 111.503906 289.753906 C 110.855469 290.191406 110.167969 290.558594 109.441406 290.859375 C 108.714844 291.160156 107.964844 291.390625 107.199219 291.542969 C 106.425781 291.695312 105.648438 291.773438 104.867188 291.773438 C 104.078125 291.773438 103.300781 291.695312 102.53125 291.542969 C 101.761719 291.390625 101.011719 291.160156 100.289062 290.859375 C 99.566406 290.558594 98.875 290.191406 98.222656 289.753906 C 97.566406 289.316406 96.96875 288.820312 96.410156 288.265625 C 95.855469 287.710938 95.359375 287.105469 94.925781 286.453125 C 94.484375 285.800781 94.121094 285.109375 93.820312 284.382812 C 93.519531 283.65625 93.292969 282.910156 93.140625 282.140625 C 92.984375 281.367188 92.910156 280.589844 92.910156 279.804688 C 92.910156 279.015625 92.984375 278.238281 93.140625 277.46875 C 93.292969 276.695312 93.519531 275.949219 93.820312 275.226562 C 94.121094 274.496094 94.484375 273.808594 94.925781 273.152344 C 95.359375 272.5 95.855469 271.898438 96.410156 271.34375 C 96.96875 270.785156 97.566406 270.289062 98.222656 269.855469 C 98.875 269.414062 99.566406 269.046875 100.289062 268.746094 C 101.011719 268.445312 101.761719 268.21875 102.53125 268.066406 C 103.300781 267.910156 104.078125 267.835938 104.867188 267.835938 C 105.648438 267.835938 106.425781 267.910156 107.199219 268.066406 C 107.964844 268.21875 108.714844 268.445312 109.441406 268.746094 C 110.167969 269.046875 110.855469 269.414062 111.503906 269.855469 C 112.160156 270.289062 112.765625 270.785156 113.320312 271.34375 C 113.875 271.898438 114.371094 272.5 114.804688 273.152344 C 115.242188 273.808594 115.609375 274.496094 115.910156 275.226562 C 116.210938 275.949219 116.4375 276.695312 116.589844 277.46875 C 116.742188 278.238281 116.816406 279.015625 116.816406 279.804688 Z M 116.816406 279.804688 " fill-opacity="1" fill-rule="nonzero"/><path fill="#000000" d="M 70.480469 334.75 C 70.480469 335.539062 70.402344 336.316406 70.25 337.085938 C 70.097656 337.859375 69.867188 338.609375 69.570312 339.335938 C 69.269531 340.058594 68.902344 340.75 68.464844 341.402344 C 68.03125 342.054688 67.535156 342.660156 66.980469 343.21875 C 66.425781 343.773438 65.820312 344.269531 65.164062 344.707031 C 64.515625 345.140625 63.828125 345.511719 63.101562 345.8125 C 62.375 346.113281 61.628906 346.335938 60.855469 346.492188 C 60.085938 346.644531 59.308594 346.71875 58.527344 346.71875 C 57.738281 346.71875 56.960938 346.644531 56.191406 346.492188 C 55.421875 346.335938 54.675781 346.113281 53.949219 345.8125 C 53.226562 345.511719 52.535156 345.140625 51.882812 344.707031 C 51.226562 344.269531 50.628906 343.773438 50.074219 343.21875 C 49.515625 342.660156 49.023438 342.054688 48.585938 341.402344 C 48.144531 340.75 47.777344 340.058594 47.480469 339.335938 C 47.179688 338.609375 46.953125 337.859375 46.800781 337.085938 C 46.644531 336.316406 46.570312 335.539062 46.570312 334.75 C 46.570312 333.96875 46.644531 333.1875 46.800781 332.417969 C 46.953125 331.648438 47.179688 330.898438 47.480469 330.171875 C 47.777344 329.445312 48.144531 328.757812 48.585938 328.105469 C 49.023438 327.449219 49.515625 326.84375 50.074219 326.289062 C 50.628906 325.734375 51.226562 325.238281 51.882812 324.800781 C 52.535156 324.363281 53.226562 323.996094 53.949219 323.695312 C 54.675781 323.394531 55.421875 323.167969 56.191406 323.015625 C 56.960938 322.863281 57.738281 322.78125 58.527344 322.78125 C 59.308594 322.78125 60.085938 322.863281 60.855469 323.015625 C 61.628906 323.167969 62.375 323.394531 63.101562 323.695312 C 63.828125 323.996094 64.515625 324.363281 65.164062 324.800781 C 65.820312 325.238281 66.425781 325.734375 66.980469 326.289062 C 67.535156 326.84375 68.03125 327.449219 68.464844 328.105469 C 68.902344 328.757812 69.269531 329.445312 69.570312 330.171875 C 69.867188 330.898438 70.097656 331.648438 70.25 332.417969 C 70.402344 333.1875 70.480469 333.96875 70.480469 334.75 Z M 70.480469 334.75 " fill-opacity="1" fill-rule="nonzero"/><g clip-path="url(#aea6bccffd)"><path fill="#000000" d="M 30.410156 334.75 C 30.410156 335.539062 30.335938 336.316406 30.179688 337.085938 C 30.027344 337.859375 29.800781 338.609375 29.5 339.335938 C 29.199219 340.058594 28.828125 340.75 28.394531 341.402344 C 27.957031 342.054688 27.460938 342.660156 26.90625 343.21875 C 26.351562 343.773438 25.746094 344.269531 25.097656 344.707031 C 24.441406 345.140625 23.753906 345.511719 23.027344 345.8125 C 22.304688 346.113281 21.554688 346.335938 20.789062 346.492188 C 20.015625 346.644531 19.238281 346.71875 18.453125 346.71875 C 17.667969 346.71875 16.894531 346.644531 16.121094 346.492188 C 15.351562 346.335938 14.605469 346.113281 13.878906 345.8125 C 13.152344 345.511719 12.464844 345.140625 11.816406 344.707031 C 11.160156 344.269531 10.554688 343.773438 10 343.21875 C 9.445312 342.660156 8.949219 342.054688 8.515625 341.402344 C 8.078125 340.75 7.710938 340.058594 7.410156 339.335938 C 7.109375 338.609375 6.882812 337.859375 6.726562 337.085938 C 6.578125 336.316406 6.496094 335.539062 6.496094 334.75 C 6.496094 333.96875 6.578125 333.1875 6.726562 332.417969 C 6.882812 331.648438 7.109375 330.898438 7.410156 330.171875 C 7.710938 329.445312 8.078125 328.757812 8.515625 328.105469 C 8.949219 327.449219 9.445312 326.84375 10 326.289062 C 10.554688 325.734375 11.160156 325.238281 11.816406 324.800781 C 12.464844 324.363281 13.152344 323.996094 13.878906 323.695312 C 14.605469 323.394531 15.351562 323.167969 16.121094 323.015625 C 16.894531 322.863281 17.667969 322.78125 18.453125 322.78125 C 19.238281 322.78125 20.015625 322.863281 20.789062 323.015625 C 21.554688 323.167969 22.304688 323.394531 23.027344 323.695312 C 23.753906 323.996094 24.441406 324.363281 25.097656 324.800781 C 25.746094 325.238281 26.351562 325.734375 26.90625 326.289062 C 27.460938 326.84375 27.957031 327.449219 28.394531 328.105469 C 28.828125 328.757812 29.199219 329.445312 29.5 330.171875 C 29.800781 330.898438 30.027344 331.648438 30.179688 332.417969 C 30.335938 333.1875 30.410156 333.96875 30.410156 334.75 Z M 30.410156 334.75 " fill-opacity="1" fill-rule="nonzero"/></g></svg>